<svg width="1942" height="736" viewBox="0 0 1942 736" fill="none" xmlns="http://www.w3.org/2000/svg">
<g clip-path="url(#clip0_7_7)" filter="url(#filter0_d_7_7)">
<rect width="1934" height="728" transform="translate(4)" fill="white"/>
<g clip-path="url(#clip1_7_7)">
<path d="M1938 -367H4V922H1938V-367Z" fill="white"/>
<path d="M4 436.477L50.2011 455.812C96.4022 475.147 188.804 513.817 280.777 529.285C372.964 544.538 464.507 536.804 556.694 515.321C648.667 493.837 741.069 458.605 833.041 467.628C925.229 476.651 1016.77 529.5 1108.96 530.359C1200.93 531.003 1293.33 479.443 1385.31 459.679C1477.49 440.129 1569.04 452.16 1661.22 465.479C1753.2 478.799 1845.6 492.978 1891.8 500.282L1938 507.372V924.148H1891.8C1845.6 924.148 1753.2 924.148 1661.22 924.148C1569.04 924.148 1477.49 924.148 1385.31 924.148C1293.33 924.148 1200.93 924.148 1108.96 924.148C1016.77 924.148 925.229 924.148 833.041 924.148C741.069 924.148 648.667 924.148 556.694 924.148C464.507 924.148 372.964 924.148 280.777 924.148C188.804 924.148 96.4022 924.148 50.2011 924.148H4V436.477Z" fill="#FF3EF3"/>
<path d="M4 556.783L50.2011 565.377C96.4022 573.97 188.804 591.157 280.777 595.024C372.964 599.105 464.507 589.653 556.694 581.919C648.667 573.97 741.069 567.525 833.041 561.724C925.229 556.139 1016.77 550.983 1108.96 559.576C1200.93 568.169 1293.33 590.512 1385.31 607.914C1477.49 625.53 1569.04 638.42 1661.22 629.182C1753.2 619.73 1845.6 588.364 1891.8 572.466L1938 556.783V924.148H1891.8C1845.6 924.148 1753.2 924.148 1661.22 924.148C1569.04 924.148 1477.49 924.148 1385.31 924.148C1293.33 924.148 1200.93 924.148 1108.96 924.148C1016.77 924.148 925.229 924.148 833.041 924.148C741.069 924.148 648.667 924.148 556.694 924.148C464.507 924.148 372.964 924.148 280.777 924.148C188.804 924.148 96.4022 924.148 50.2011 924.148H4V556.783Z" fill="#CD4EF1"/>
<path d="M4 724.353L50.2011 703.944C96.4022 683.535 188.804 642.717 280.777 617.581C372.964 592.66 464.507 583.208 556.694 604.047C648.667 624.886 741.069 675.586 833.041 700.077C925.229 724.353 1016.77 722.205 1108.96 720.057C1200.93 717.908 1293.33 715.76 1385.31 707.167C1477.49 698.573 1569.04 683.535 1661.22 682.031C1753.2 680.742 1845.6 692.773 1891.8 699.003L1938 705.018V924.148H1891.8C1845.6 924.148 1753.2 924.148 1661.22 924.148C1569.04 924.148 1477.49 924.148 1385.31 924.148C1293.33 924.148 1200.93 924.148 1108.96 924.148C1016.77 924.148 925.229 924.148 833.041 924.148C741.069 924.148 648.667 924.148 556.694 924.148C464.507 924.148 372.964 924.148 280.777 924.148C188.804 924.148 96.4022 924.148 50.2011 924.148H4V724.353Z" fill="#9A56E9"/>
<path d="M4 752.282L50.2011 750.133C96.4022 747.985 188.804 743.688 280.777 730.369C372.964 717.264 464.507 694.921 556.694 704.374C648.667 713.612 741.069 754.43 833.041 766.676C925.229 778.706 1016.77 762.379 1108.96 746.481C1200.93 730.798 1293.33 715.76 1385.31 714.256C1477.49 712.967 1569.04 724.998 1661.22 720.057C1753.2 715.116 1845.6 692.773 1891.8 681.816L1938 670.645V924.148H1891.8C1845.6 924.148 1753.2 924.148 1661.22 924.148C1569.04 924.148 1477.49 924.148 1385.31 924.148C1293.33 924.148 1200.93 924.148 1108.96 924.148C1016.77 924.148 925.229 924.148 833.041 924.148C741.069 924.148 648.667 924.148 556.694 924.148C464.507 924.148 372.964 924.148 280.777 924.148C188.804 924.148 96.4022 924.148 50.2011 924.148H4V752.282Z" fill="#6558DB"/>
<path d="M821.279 142.918H810.488V160.09H791.935V142.918H781.079V187H791.935V169.565H810.488V187H821.279V142.918ZM861.317 170.486C861.119 159.696 853.619 152.985 844.276 152.985C834.67 152.985 826.775 160.09 826.775 170.486C826.775 180.947 834.67 187.987 844.21 187.987C851.777 187.987 857.764 184.631 860.593 177.657L851.25 175.749C849.474 178.973 846.645 179.565 844.21 179.565C840.658 179.565 837.96 177.131 837.105 173.183H861.317V170.486ZM844.276 161.538C847.303 161.538 849.934 163.183 850.921 166.735H837.302C838.289 163.38 841.315 161.538 844.276 161.538ZM877.318 187V139.628H866.791V187H877.318ZM895.501 187V139.628H884.974V187H895.501ZM919.277 153.116C909.276 153.116 900.986 160.09 900.986 170.486C900.986 180.947 909.276 187.921 919.277 187.921C929.08 187.921 937.37 180.947 937.37 170.486C937.37 160.09 929.08 153.116 919.277 153.116ZM919.277 179.039C915 179.039 911.118 175.683 911.118 170.486C911.118 165.354 915 161.933 919.277 161.933C923.356 161.933 927.238 165.354 927.238 170.486C927.238 175.683 923.356 179.039 919.277 179.039ZM1017.9 142.918H1006.71L999.016 170.683L991.45 142.918H981.12L973.554 170.683L965.856 142.918H954.737L967.304 187H978.883L986.318 159.761L993.687 187H1005.33L1017.9 142.918ZM1035.25 153.116C1025.25 153.116 1016.96 160.09 1016.96 170.486C1016.96 180.947 1025.25 187.921 1035.25 187.921C1045.05 187.921 1053.34 180.947 1053.34 170.486C1053.34 160.09 1045.05 153.116 1035.25 153.116ZM1035.25 179.039C1030.97 179.039 1027.09 175.683 1027.09 170.486C1027.09 165.354 1030.97 161.933 1035.25 161.933C1039.33 161.933 1043.21 165.354 1043.21 170.486C1043.21 175.683 1039.33 179.039 1035.25 179.039ZM1080.68 153.511C1075.29 153.511 1071.67 156.34 1069.3 160.288V153.971H1058.78V187H1069.3V176.67C1069.3 168.117 1073.32 164.301 1080.68 164.301H1082.59L1083.05 153.774C1082.26 153.577 1081.61 153.511 1080.68 153.511ZM1098.02 187V139.628H1087.5V187H1098.02ZM1140.42 139.628H1129.89V156.603C1127.33 154.3 1123.9 152.985 1119.63 152.985C1110.88 152.985 1103.51 160.09 1103.51 170.486C1103.51 180.947 1110.88 187.987 1119.63 187.987C1123.9 187.987 1127.33 186.671 1129.89 184.368V187H1140.42V139.628ZM1121.8 179.039C1117.19 179.039 1113.84 175.618 1113.84 170.486C1113.84 165.42 1117.19 161.933 1121.8 161.933C1126.08 161.933 1129.89 165.42 1129.89 170.486C1129.89 175.618 1126.08 179.039 1121.8 179.039ZM1159.86 142.918H1148.15V144.958L1148.81 171.933H1159.21L1159.86 144.958V142.918ZM1154.14 175.683C1150.59 175.683 1148.09 178.381 1148.09 181.539C1148.09 184.829 1150.59 187.329 1154.14 187.329C1157.63 187.329 1160.13 184.829 1160.13 181.539C1160.13 178.381 1157.63 175.683 1154.14 175.683Z" fill="black"/>
<path d="M673.092 217.564H658.81L638.85 255.266L618.89 217.564H604.519V277H618.712V245.153L635.479 277H642.221L658.898 245.33V277H673.092V217.564ZM731.169 232.378H715.91L704.644 258.371L694.088 232.378H678.829L697.281 275.492L690.096 292.081H705.443L731.169 232.378ZM785.366 231.136C779.777 231.136 775.075 233.177 771.704 236.725V232.467H757.51V277H771.704V256.33C771.704 247.725 775.341 243.911 780.93 243.911C785.454 243.911 788.559 247.459 788.559 252.693V277H802.664V249.677C802.664 238.499 795.745 231.136 785.366 231.136ZM859.188 232.467H844.994V236.016C841.534 232.911 836.921 231.136 831.155 231.136C819.356 231.136 809.421 240.717 809.421 254.734C809.421 268.839 819.356 278.331 831.155 278.331C836.921 278.331 841.534 276.556 844.994 273.452V277H859.188V232.467ZM834.082 266.266C827.873 266.266 823.348 261.653 823.348 254.734C823.348 247.903 827.873 243.201 834.082 243.201C839.849 243.201 844.994 247.903 844.994 254.734C844.994 261.653 839.849 266.266 834.082 266.266ZM927.101 231.136C920.181 231.136 914.858 234.064 911.31 238.677C908.294 233.798 902.971 231.136 896.761 231.136C890.995 231.136 886.648 233.177 883.632 236.548V232.467H869.438V277H883.632V255.177C883.632 247.725 887.003 243.911 892.148 243.911C896.407 243.911 899.689 247.104 899.689 252.161V277H913.883V255.177C913.883 247.725 917.342 243.911 922.576 243.911C926.746 243.911 930.028 247.104 930.028 252.161V277H944.133V249.145C944.133 238.322 936.593 231.136 927.101 231.136ZM997.464 254.734C997.197 240.185 987.084 231.136 974.487 231.136C961.536 231.136 950.89 240.717 950.89 254.734C950.89 268.839 961.536 278.331 974.399 278.331C984.6 278.331 992.673 273.806 996.488 264.403L983.891 261.83C981.496 266.177 977.681 266.976 974.399 266.976C969.608 266.976 965.971 263.693 964.818 258.371H997.464V254.734ZM974.487 242.669C978.568 242.669 982.117 244.887 983.447 249.677H965.084C966.415 245.153 970.495 242.669 974.487 242.669ZM1001.83 265.379C1003.34 274.516 1012.3 278.331 1022.76 278.331C1034.47 278.331 1042.99 273.185 1042.99 263.339C1042.99 256.774 1039.09 251.717 1030.66 249.943L1020.19 247.814C1017.35 247.193 1016.82 245.951 1016.82 244.709C1016.82 243.112 1018.06 241.25 1021.88 241.25C1026.22 241.25 1028.88 243.733 1029.33 246.483L1042.28 243.911C1040.51 236.193 1033.14 231.136 1022.05 231.136C1010.79 231.136 1002.89 237.08 1002.89 246.217C1002.89 253.225 1007.59 257.661 1015.84 259.169L1024.89 260.943C1028.17 261.564 1029.33 262.718 1029.33 264.226C1029.33 266.177 1027.29 267.774 1023.56 267.774C1019.75 267.774 1016.29 266.355 1015.67 262.54L1001.83 265.379ZM1071.12 217.564V277H1094.63C1114.23 277 1127.18 264.935 1127.18 247.282C1127.18 229.628 1114.23 217.564 1094.63 217.564H1071.12ZM1085.75 264.314V230.249H1094.09C1105.18 230.249 1112.46 236.991 1112.46 247.282C1112.46 257.572 1105.18 264.314 1094.09 264.314H1085.75ZM1182.24 232.467H1168.04V236.016C1164.58 232.911 1159.97 231.136 1154.2 231.136C1142.41 231.136 1132.47 240.717 1132.47 254.734C1132.47 268.839 1142.41 278.331 1154.2 278.331C1159.97 278.331 1164.58 276.556 1168.04 273.452V277H1182.24V232.467ZM1157.13 266.266C1150.92 266.266 1146.4 261.653 1146.4 254.734C1146.4 247.903 1150.92 243.201 1157.13 243.201C1162.9 243.201 1168.04 247.903 1168.04 254.734C1168.04 261.653 1162.9 266.266 1157.13 266.266ZM1220.34 231.136C1214.75 231.136 1210.05 233.177 1206.68 236.725V232.467H1192.49V277H1206.68V256.33C1206.68 247.725 1210.32 243.911 1215.91 243.911C1220.43 243.911 1223.54 247.459 1223.54 252.693V277H1237.64V249.677C1237.64 238.499 1230.72 231.136 1220.34 231.136ZM1255.13 211.265C1250.34 211.265 1246.97 214.991 1246.97 219.338C1246.97 223.862 1250.34 227.233 1255.13 227.233C1259.92 227.233 1263.38 223.862 1263.38 219.338C1263.38 214.991 1259.92 211.265 1255.13 211.265ZM1262.23 277V232.467H1248.04V277H1262.23ZM1316.87 254.734C1316.61 240.185 1306.5 231.136 1293.9 231.136C1280.95 231.136 1270.3 240.717 1270.3 254.734C1270.3 268.839 1280.95 278.331 1293.81 278.331C1304.01 278.331 1312.08 273.806 1315.9 264.403L1303.3 261.83C1300.91 266.177 1297.09 266.976 1293.81 266.976C1289.02 266.976 1285.38 263.693 1284.23 258.371H1316.87V254.734ZM1293.9 242.669C1297.98 242.669 1301.53 244.887 1302.86 249.677H1284.5C1285.83 245.153 1289.91 242.669 1293.9 242.669ZM1338.45 277V213.128H1324.26V277H1338.45Z" fill="black"/>
<path d="M912 308L916.181 358.358L935 365L953.819 358.358L958 308H912ZM949.507 318.179L948.932 324.197L935.12 330.469L935.084 330.482H948.441L946.907 349.134L935.144 352.786L923.308 349.071L922.542 339.668H928.399L928.783 344.541L935.084 346.233L941.636 344.274L942.08 336.436L922.158 336.373V336.36L922.134 336.373L921.703 330.482L935.132 324.54L935.91 324.197H921.188L920.493 318.179H949.507Z" fill="black"/>
<path d="M1025.96 329.438C1024.98 325.507 1023.12 322.542 1019.16 322.542H1014.06V328.573C1014.06 333.255 1010.09 337.199 1005.56 337.199H991.972C988.257 337.199 985.178 340.38 985.178 344.107V357.059C985.178 360.749 988.385 362.912 991.972 363.968C996.273 365.227 1000.41 365.456 1005.56 363.968C1008.98 362.975 1012.35 360.978 1012.35 357.059V351.881H998.779V350.151H1019.16C1023.12 350.151 1024.58 347.39 1025.96 343.255C1027.38 338.993 1027.32 334.896 1025.96 329.438V329.438ZM1006.41 355.329C1007.83 355.329 1008.97 356.487 1008.97 357.912C1008.97 359.349 1007.83 360.507 1006.41 360.507C1005.01 360.507 1003.86 359.337 1003.86 357.912C1003.87 356.474 1005.01 355.329 1006.41 355.329ZM991.349 335.494H1004.94C1008.72 335.494 1011.73 332.377 1011.73 328.586V315.621C1011.73 311.932 1008.63 309.171 1004.94 308.547C1000.38 307.797 995.433 307.835 991.349 308.56C985.598 309.578 984.555 311.702 984.555 315.634V320.812H998.156V322.542H979.453C975.496 322.542 972.036 324.921 970.954 329.438C969.707 334.616 969.657 337.848 970.954 343.255C971.921 347.275 974.224 350.151 978.181 350.151H982.85V343.942C982.85 339.451 986.731 335.494 991.349 335.494ZM990.497 317.351C989.084 317.351 987.939 316.194 987.939 314.769C987.952 313.331 989.084 312.173 990.497 312.173C991.896 312.173 993.054 313.344 993.054 314.769C993.054 316.194 991.909 317.351 990.497 317.351V317.351Z" fill="black"/>
<path d="M852 308L856.181 358.358L874.94 365L893.819 358.358L898 308H852ZM888.92 324.273H866.902L867.393 330.558H888.429L886.799 349.44L875.072 352.875V352.913H874.94L863.117 349.44L862.398 339.795H868.112L868.531 344.643L874.94 346.488L881.373 344.643L882.092 336.729H862.098L860.565 318.204H889.447L888.92 324.273Z" fill="black"/>
<path d="M1065.49 365C1064.72 365 1063.95 364.796 1063.27 364.412L1056.23 360.283C1055.18 359.695 1055.69 359.492 1056.04 359.379C1057.44 358.892 1057.73 358.79 1059.22 357.942C1059.38 357.852 1059.59 357.886 1059.75 357.987L1065.16 361.166C1065.35 361.279 1065.63 361.279 1065.81 361.166L1086.89 349.109C1087.08 348.995 1087.21 348.769 1087.21 348.543V324.429C1087.21 324.191 1087.08 323.976 1086.88 323.852L1065.81 311.806C1065.61 311.693 1065.35 311.693 1065.16 311.806L1044.1 323.863C1043.89 323.976 1043.77 324.202 1043.77 324.44V348.543C1043.77 348.769 1043.89 348.995 1044.1 349.097L1049.87 352.4C1053.01 353.95 1054.93 352.128 1054.93 350.285V326.487C1054.93 326.148 1055.2 325.888 1055.55 325.888H1058.22C1058.55 325.888 1058.83 326.148 1058.83 326.487V350.296C1058.83 354.436 1056.55 356.811 1052.59 356.811C1051.37 356.811 1050.41 356.811 1047.74 355.499L1042.21 352.343C1040.84 351.563 1040 350.104 1040 348.532V324.429C1040 322.868 1040.84 321.397 1042.21 320.617L1063.27 308.56C1064.61 307.813 1066.38 307.813 1067.7 308.56L1088.79 320.628C1090.16 321.409 1091 322.868 1091 324.44V348.543C1091 350.104 1090.16 351.563 1088.79 352.355L1067.7 364.412C1067.03 364.796 1066.26 365 1065.49 365ZM1082.51 341.236C1082.51 336.723 1079.43 335.524 1072.95 334.676C1066.4 333.817 1065.74 333.375 1065.74 331.86C1065.74 330.604 1066.3 328.93 1071.15 328.93C1075.48 328.93 1077.07 329.858 1077.74 332.753C1077.79 333.025 1078.04 333.228 1078.33 333.228H1081.07C1081.24 333.228 1081.4 333.161 1081.51 333.036C1081.63 332.912 1081.69 332.742 1081.67 332.572C1081.25 327.584 1077.91 325.266 1071.15 325.266C1065.13 325.266 1061.55 327.777 1061.55 331.996C1061.55 336.565 1065.12 337.832 1070.89 338.397C1077.79 339.065 1078.33 340.071 1078.33 341.417C1078.33 343.747 1076.44 344.743 1071.99 344.743C1066.41 344.743 1065.19 343.351 1064.78 340.603C1064.74 340.309 1064.48 340.094 1064.18 340.094H1061.45C1061.11 340.094 1060.84 340.365 1060.84 340.693C1060.84 344.211 1062.77 348.407 1072.01 348.407C1078.67 348.396 1082.51 345.783 1082.51 341.236V341.236Z" fill="black"/>
</g>
</g>
<defs>
<filter id="filter0_d_7_7" x="0" y="0" width="1942" height="736" filterUnits="userSpaceOnUse" color-interpolation-filters="sRGB">
<feFlood flood-opacity="0" result="BackgroundImageFix"/>
<feColorMatrix in="SourceAlpha" type="matrix" values="0 0 0 0 0 0 0 0 0 0 0 0 0 0 0 0 0 0 127 0" result="hardAlpha"/>
<feOffset dy="4"/>
<feGaussianBlur stdDeviation="2"/>
<feComposite in2="hardAlpha" operator="out"/>
<feColorMatrix type="matrix" values="0 0 0 0 0 0 0 0 0 0 0 0 0 0 0 0 0 0 0.25 0"/>
<feBlend mode="normal" in2="BackgroundImageFix" result="effect1_dropShadow_7_7"/>
<feBlend mode="normal" in="SourceGraphic" in2="effect1_dropShadow_7_7" result="shape"/>
</filter>
<clipPath id="clip0_7_7">
<rect width="1934" height="728" fill="white" transform="translate(4)"/>
</clipPath>
<clipPath id="clip1_7_7">
<rect width="1934" height="1289" fill="white" transform="translate(4 -367)"/>
</clipPath>
</defs>
</svg>
