<svg width="1942" height="736" viewBox="0 0 1942 736" fill="none" xmlns="http://www.w3.org/2000/svg">
<g clip-path="url(#clip0_7_7)" filter="url(#filter0_d_7_7)">
<rect width="1934" height="728" transform="translate(4)" fill="white"/>
<g clip-path="url(#clip1_7_7)">
<path d="M1938 -367H4V922H1938V-367Z" fill="white"/>
<path d="M4 436.477L50.2011 455.812C96.4022 475.147 188.804 513.817 280.777 529.285C372.964 544.538 464.507 536.804 556.694 515.321C648.667 493.837 741.069 458.605 833.041 467.628C925.229 476.651 1016.77 529.5 1108.96 530.359C1200.93 531.003 1293.33 479.443 1385.31 459.679C1477.49 440.129 1569.04 452.16 1661.22 465.479C1753.2 478.799 1845.6 492.978 1891.8 500.282L1938 507.372V924.148H1891.8C1845.6 924.148 1753.2 924.148 1661.22 924.148C1569.04 924.148 1477.49 924.148 1385.31 924.148C1293.33 924.148 1200.93 924.148 1108.96 924.148C1016.77 924.148 925.229 924.148 833.041 924.148C741.069 924.148 648.667 924.148 556.694 924.148C464.507 924.148 372.964 924.148 280.777 924.148C188.804 924.148 96.4022 924.148 50.2011 924.148H4V436.477Z" fill="#FF3EF3"/>
<path d="M4 556.783L50.2011 565.377C96.4022 573.97 188.804 591.157 280.777 595.024C372.964 599.105 464.507 589.653 556.694 581.919C648.667 573.97 741.069 567.525 833.041 561.724C925.229 556.139 1016.77 550.983 1108.96 559.576C1200.93 568.169 1293.33 590.512 1385.31 607.914C1477.49 625.53 1569.04 638.42 1661.22 629.182C1753.2 619.73 1845.6 588.364 1891.8 572.466L1938 556.783V924.148H1891.8C1845.6 924.148 1753.2 924.148 1661.22 924.148C1569.04 924.148 1477.49 924.148 1385.31 924.148C1293.33 924.148 1200.93 924.148 1108.96 924.148C1016.77 924.148 925.229 924.148 833.041 924.148C741.069 924.148 648.667 924.148 556.694 924.148C464.507 924.148 372.964 924.148 280.777 924.148C188.804 924.148 96.4022 924.148 50.2011 924.148H4V556.783Z" fill="#CD4EF1"/>
<path d="M4 724.353L50.2011 703.944C96.4022 683.535 188.804 642.717 280.777 617.581C372.964 592.66 464.507 583.208 556.694 604.047C648.667 624.886 741.069 675.586 833.041 700.077C925.229 724.353 1016.77 722.205 1108.96 720.057C1200.93 717.908 1293.33 715.76 1385.31 707.167C1477.49 698.573 1569.04 683.535 1661.22 682.031C1753.2 680.742 1845.6 692.773 1891.8 699.003L1938 705.018V924.148H1891.8C1845.6 924.148 1753.2 924.148 1661.22 924.148C1569.04 924.148 1477.49 924.148 1385.31 924.148C1293.33 924.148 1200.93 924.148 1108.96 924.148C1016.77 924.148 925.229 924.148 833.041 924.148C741.069 924.148 648.667 924.148 556.694 924.148C464.507 924.148 372.964 924.148 280.777 924.148C188.804 924.148 96.4022 924.148 50.2011 924.148H4V724.353Z" fill="#9A56E9"/>
<path d="M4 752.282L50.2011 750.133C96.4022 747.985 188.804 743.688 280.777 730.369C372.964 717.264 464.507 694.921 556.694 704.374C648.667 713.612 741.069 754.43 833.041 766.676C925.229 778.706 1016.77 762.379 1108.96 746.481C1200.93 730.798 1293.33 715.76 1385.31 714.256C1477.49 712.967 1569.04 724.998 1661.22 720.057C1753.2 715.116 1845.6 692.773 1891.8 681.816L1938 670.645V924.148H1891.8C1845.6 924.148 1753.2 924.148 1661.22 924.148C1569.04 924.148 1477.49 924.148 1385.31 924.148C1293.33 924.148 1200.93 924.148 1108.96 924.148C1016.77 924.148 925.229 924.148 833.041 924.148C741.069 924.148 648.667 924.148 556.694 924.148C464.507 924.148 372.964 924.148 280.777 924.148C188.804 924.148 96.4022 924.148 50.2011 924.148H4V752.282Z" fill="#6558DB"/>
<path d="M821.279 142.918H826.279V137.918H821.279V142.918ZM810.488 142.918V137.918H805.488V142.918H810.488ZM810.488 160.09V165.09H815.488V160.09H810.488ZM791.935 160.09H786.935V165.09H791.935V160.09ZM791.935 142.918H796.935V137.918H791.935V142.918ZM781.079 142.918V137.918H776.079V142.918H781.079ZM781.079 187H776.079V192H781.079V187ZM791.935 187V192H796.935V187H791.935ZM791.935 169.565V164.565H786.935V169.565H791.935ZM810.488 169.565H815.488V164.565H810.488V169.565ZM810.488 187H805.488V192H810.488V187ZM821.279 187V192H826.279V187H821.279ZM821.279 137.918H810.488V147.918H821.279V137.918ZM805.488 142.918V160.09H815.488V142.918H805.488ZM810.488 155.09H791.935V165.09H810.488V155.09ZM796.935 160.09V142.918H786.935V160.09H796.935ZM791.935 137.918H781.079V147.918H791.935V137.918ZM776.079 142.918V187H786.079V142.918H776.079ZM781.079 192H791.935V182H781.079V192ZM796.935 187V169.565H786.935V187H796.935ZM791.935 174.565H810.488V164.565H791.935V174.565ZM805.488 169.565V187H815.488V169.565H805.488ZM810.488 192H821.279V182H810.488V192ZM826.279 187V142.918H816.279V187H826.279ZM861.317 170.486H866.317V170.44L866.316 170.394L861.317 170.486ZM860.593 177.657L865.226 179.537L867.488 173.962L861.594 172.758L860.593 177.657ZM851.25 175.749L852.251 170.85L848.647 170.114L846.871 173.336L851.25 175.749ZM837.105 173.183V168.183H830.905L832.218 174.242L837.105 173.183ZM861.317 173.183V178.183H866.317V173.183H861.317ZM850.921 166.735V171.735H857.5L855.739 165.397L850.921 166.735ZM837.302 166.735L832.505 165.325L830.62 171.735H837.302V166.735ZM866.316 170.394C866.196 163.821 863.822 158.159 859.738 154.13C855.668 150.114 850.165 147.985 844.276 147.985V157.985C847.73 157.985 850.649 159.211 852.714 161.248C854.765 163.271 856.241 166.36 856.318 170.577L866.316 170.394ZM844.276 147.985C832.059 147.985 821.775 157.181 821.775 170.486H831.775C831.775 162.999 837.282 157.985 844.276 157.985V147.985ZM821.775 170.486C821.775 183.856 832.059 192.987 844.21 192.987V182.987C837.281 182.987 831.775 178.037 831.775 170.486H821.775ZM844.21 192.987C853.45 192.987 861.504 188.712 865.226 179.537L855.96 175.778C854.024 180.551 850.103 182.987 844.21 182.987V192.987ZM861.594 172.758L852.251 170.85L850.25 180.648L859.593 182.556L861.594 172.758ZM846.871 173.336C846.507 173.996 846.177 174.194 845.938 174.301C845.596 174.454 845.063 174.565 844.21 174.565V184.565C847.505 184.565 852.591 183.676 855.63 178.162L846.871 173.336ZM844.21 174.565C843.456 174.565 842.449 174.237 841.991 172.125L832.218 174.242C833.471 180.025 837.859 184.565 844.21 184.565V174.565ZM837.105 178.183H861.317V168.183H837.105V178.183ZM866.317 173.183V170.486H856.317V173.183H866.317ZM844.276 166.538C844.879 166.538 845.215 166.695 845.396 166.828C845.554 166.945 845.874 167.246 846.104 168.074L855.739 165.397C854.982 162.672 853.492 160.374 851.332 158.78C849.193 157.203 846.7 156.538 844.276 156.538V166.538ZM850.921 161.735H837.302V171.735H850.921V161.735ZM842.099 168.146C842.393 167.146 843.287 166.538 844.276 166.538V156.538C839.344 156.538 834.185 159.614 832.505 165.325L842.099 168.146ZM877.318 187V192H882.318V187H877.318ZM877.318 139.628H882.318V134.628H877.318V139.628ZM866.791 139.628V134.628H861.791V139.628H866.791ZM866.791 187H861.791V192H866.791V187ZM882.318 187V139.628H872.318V187H882.318ZM877.318 134.628H866.791V144.628H877.318V134.628ZM861.791 139.628V187H871.791V139.628H861.791ZM866.791 192H877.318V182H866.791V192ZM895.501 187V192H900.501V187H895.501ZM895.501 139.628H900.501V134.628H895.501V139.628ZM884.974 139.628V134.628H879.974V139.628H884.974ZM884.974 187H879.974V192H884.974V187ZM900.501 187V139.628H890.501V187H900.501ZM895.501 134.628H884.974V144.628H895.501V134.628ZM879.974 139.628V187H889.974V139.628H879.974ZM884.974 192H895.501V182H884.974V192ZM919.277 148.116C906.937 148.116 895.986 156.924 895.986 170.486H905.986C905.986 163.256 911.615 158.116 919.277 158.116V148.116ZM895.986 170.486C895.986 184.101 906.924 192.921 919.277 192.921V182.921C911.628 182.921 905.986 177.793 905.986 170.486H895.986ZM919.277 192.921C931.468 192.921 942.37 184.067 942.37 170.486H932.37C932.37 177.827 926.692 182.921 919.277 182.921V192.921ZM942.37 170.486C942.37 156.958 931.455 148.116 919.277 148.116V158.116C926.705 158.116 932.37 163.223 932.37 170.486H942.37ZM919.277 174.039C917.709 174.039 916.118 172.87 916.118 170.486H906.118C906.118 178.497 912.291 184.039 919.277 184.039V174.039ZM916.118 170.486C916.118 168.141 917.736 166.933 919.277 166.933V156.933C912.264 156.933 906.118 162.567 906.118 170.486H916.118ZM919.277 166.933C920.542 166.933 922.238 168.063 922.238 170.486H932.238C932.238 162.645 926.169 156.933 919.277 156.933V166.933ZM922.238 170.486C922.238 172.948 920.568 174.039 919.277 174.039V184.039C926.143 184.039 932.238 178.419 932.238 170.486H922.238ZM1017.9 142.918L1022.71 144.289L1024.52 137.918H1017.9V142.918ZM1006.71 142.918V137.918H1002.91L1001.9 141.582L1006.71 142.918ZM999.016 170.683L994.192 171.998L998.975 189.547L1003.83 172.019L999.016 170.683ZM991.45 142.918L996.274 141.603L995.27 137.918H991.45V142.918ZM981.12 142.918V137.918H977.301L976.296 141.603L981.12 142.918ZM973.554 170.683L968.736 172.019L973.596 189.548L978.378 171.998L973.554 170.683ZM965.856 142.918L970.674 141.582L969.658 137.918H965.856V142.918ZM954.737 142.918V137.918H948.112L949.929 144.289L954.737 142.918ZM967.304 187L962.495 188.371L963.53 192H967.304V187ZM978.883 187V192H982.702L983.707 188.317L978.883 187ZM986.318 159.761L991.145 158.456L986.339 140.694L981.494 158.445L986.318 159.761ZM993.687 187L988.86 188.306L989.86 192H993.687V187ZM1005.33 187V192H1009.11L1010.14 188.371L1005.33 187ZM1017.9 137.918H1006.71V147.918H1017.9V137.918ZM1001.9 141.582L994.198 169.347L1003.83 172.019L1011.53 144.254L1001.9 141.582ZM1003.84 169.368L996.274 141.603L986.626 144.233L994.192 171.998L1003.84 169.368ZM991.45 137.918H981.12V147.918H991.45V137.918ZM976.296 141.603L968.73 169.368L978.378 171.998L985.944 144.233L976.296 141.603ZM978.372 169.347L970.674 141.582L961.038 144.254L968.736 172.019L978.372 169.347ZM965.856 137.918H954.737V147.918H965.856V137.918ZM949.929 144.289L962.495 188.371L972.112 185.629L959.545 141.547L949.929 144.289ZM967.304 192H978.883V182H967.304V192ZM983.707 188.317L991.142 161.078L981.494 158.445L974.06 185.683L983.707 188.317ZM981.492 161.067L988.86 188.306L998.513 185.694L991.145 158.456L981.492 161.067ZM993.687 192H1005.33V182H993.687V192ZM1010.14 188.371L1022.71 144.289L1013.09 141.547L1000.52 185.629L1010.14 188.371ZM1035.25 148.116C1022.91 148.116 1011.96 156.924 1011.96 170.486H1021.96C1021.96 163.256 1027.59 158.116 1035.25 158.116V148.116ZM1011.96 170.486C1011.96 184.101 1022.9 192.921 1035.25 192.921V182.921C1027.6 182.921 1021.96 177.793 1021.96 170.486H1011.96ZM1035.25 192.921C1047.44 192.921 1058.34 184.067 1058.34 170.486H1048.34C1048.34 177.827 1042.67 182.921 1035.25 182.921V192.921ZM1058.34 170.486C1058.34 156.958 1047.43 148.116 1035.25 148.116V158.116C1042.68 158.116 1048.34 163.223 1048.34 170.486H1058.34ZM1035.25 174.039C1033.68 174.039 1032.09 172.87 1032.09 170.486H1022.09C1022.09 178.497 1028.27 184.039 1035.25 184.039V174.039ZM1032.09 170.486C1032.09 168.141 1033.71 166.933 1035.25 166.933V156.933C1028.24 156.933 1022.09 162.567 1022.09 170.486H1032.09ZM1035.25 166.933C1036.52 166.933 1038.21 168.063 1038.21 170.486H1048.21C1048.21 162.645 1042.14 156.933 1035.25 156.933V166.933ZM1038.21 170.486C1038.21 172.948 1036.54 174.039 1035.25 174.039V184.039C1042.12 184.039 1048.21 178.419 1048.21 170.486H1038.21ZM1069.3 160.288H1064.3V178.339L1073.59 162.86L1069.3 160.288ZM1069.3 153.971H1074.3V148.971H1069.3V153.971ZM1058.78 153.971V148.971H1053.78V153.971H1058.78ZM1058.78 187H1053.78V192H1058.78V187ZM1069.3 187V192H1074.3V187H1069.3ZM1082.59 164.301V169.301H1087.38L1087.59 164.52L1082.59 164.301ZM1083.05 153.774L1088.05 153.993L1088.23 149.914L1084.27 148.923L1083.05 153.774ZM1080.68 148.511C1073.14 148.511 1068.06 152.636 1065.01 157.715L1073.59 162.86C1075.28 160.044 1077.44 158.511 1080.68 158.511V148.511ZM1074.3 160.288V153.971H1064.3V160.288H1074.3ZM1069.3 148.971H1058.78V158.971H1069.3V148.971ZM1053.78 153.971V187H1063.78V153.971H1053.78ZM1058.78 192H1069.3V182H1058.78V192ZM1074.3 187V176.67H1064.3V187H1074.3ZM1074.3 176.67C1074.3 173.087 1075.15 171.464 1075.85 170.724C1076.51 170.033 1077.82 169.301 1080.68 169.301V159.301C1076.18 159.301 1071.8 160.477 1068.61 163.832C1065.46 167.139 1064.3 171.701 1064.3 176.67H1074.3ZM1080.68 169.301H1082.59V159.301H1080.68V169.301ZM1087.59 164.52L1088.05 153.993L1078.06 153.556L1077.6 164.083L1087.59 164.52ZM1084.27 148.923C1082.99 148.605 1081.91 148.511 1080.68 148.511V158.511C1081.3 158.511 1081.53 158.548 1081.84 158.625L1084.27 148.923ZM1098.02 187V192H1103.02V187H1098.02ZM1098.02 139.628H1103.02V134.628H1098.02V139.628ZM1087.5 139.628V134.628H1082.5V139.628H1087.5ZM1087.5 187H1082.5V192H1087.5V187ZM1103.02 187V139.628H1093.02V187H1103.02ZM1098.02 134.628H1087.5V144.628H1098.02V134.628ZM1082.5 139.628V187H1092.5V139.628H1082.5ZM1087.5 192H1098.02V182H1087.5V192ZM1140.42 139.628H1145.42V134.628H1140.42V139.628ZM1129.89 139.628V134.628H1124.89V139.628H1129.89ZM1129.89 156.603L1126.55 160.324L1134.89 167.809V156.603H1129.89ZM1129.89 184.368H1134.89V173.163L1126.55 180.647L1129.89 184.368ZM1129.89 187H1124.89V192H1129.89V187ZM1140.42 187V192H1145.42V187H1140.42ZM1140.42 134.628H1129.89V144.628H1140.42V134.628ZM1124.89 139.628V156.603H1134.89V139.628H1124.89ZM1133.23 152.882C1129.65 149.665 1124.99 147.985 1119.63 147.985V157.985C1122.81 157.985 1125 158.936 1126.55 160.324L1133.23 152.882ZM1119.63 147.985C1107.9 147.985 1098.51 157.551 1098.51 170.486H1108.51C1108.51 162.63 1113.85 157.985 1119.63 157.985V147.985ZM1098.51 170.486C1098.51 183.5 1107.91 192.987 1119.63 192.987V182.987C1113.84 182.987 1108.51 178.394 1108.51 170.486H1098.51ZM1119.63 192.987C1124.99 192.987 1129.65 191.307 1133.23 188.089L1126.55 180.647C1125 182.035 1122.81 182.987 1119.63 182.987V192.987ZM1124.89 184.368V187H1134.89V184.368H1124.89ZM1129.89 192H1140.42V182H1129.89V192ZM1145.42 187V139.628H1135.42V187H1145.42ZM1121.8 174.039C1120.78 174.039 1120.14 173.687 1119.72 173.253C1119.3 172.803 1118.84 171.948 1118.84 170.486H1108.84C1108.84 174.155 1110.05 177.577 1112.46 180.121C1114.88 182.68 1118.21 184.039 1121.8 184.039V174.039ZM1118.84 170.486C1118.84 169.069 1119.29 168.204 1119.73 167.734C1120.16 167.28 1120.81 166.933 1121.8 166.933V156.933C1118.18 156.933 1114.85 158.328 1112.45 160.885C1110.06 163.425 1108.84 166.836 1108.84 170.486H1118.84ZM1121.8 166.933C1123.26 166.933 1124.89 168.129 1124.89 170.486H1134.89C1134.89 162.71 1128.89 156.933 1121.8 156.933V166.933ZM1124.89 170.486C1124.89 172.882 1123.29 174.039 1121.8 174.039V184.039C1128.86 184.039 1134.89 178.353 1134.89 170.486H1124.89ZM1159.86 142.918H1164.86V137.918H1159.86V142.918ZM1148.15 142.918V137.918H1143.15V142.918H1148.15ZM1148.15 144.958H1143.15V145.019L1143.15 145.08L1148.15 144.958ZM1148.81 171.933L1143.81 172.055L1143.93 176.933H1148.81V171.933ZM1159.21 171.933V176.933H1164.09L1164.2 172.055L1159.21 171.933ZM1159.86 144.958L1164.86 145.08L1164.86 145.019V144.958H1159.86ZM1159.86 137.918H1148.15V147.918H1159.86V137.918ZM1143.15 142.918V144.958H1153.15V142.918H1143.15ZM1143.15 145.08L1143.81 172.055L1153.81 171.811L1153.15 144.836L1143.15 145.08ZM1148.81 176.933H1159.21V166.933H1148.81V176.933ZM1164.2 172.055L1164.86 145.08L1154.87 144.836L1154.21 171.811L1164.2 172.055ZM1164.86 144.958V142.918H1154.86V144.958H1164.86ZM1154.14 170.683C1147.83 170.683 1143.09 175.62 1143.09 181.539H1153.09C1153.09 181.297 1153.18 181.101 1153.32 180.963C1153.44 180.842 1153.67 180.683 1154.14 180.683V170.683ZM1143.09 181.539C1143.09 187.736 1147.97 192.329 1154.14 192.329V182.329C1153.56 182.329 1153.33 182.143 1153.26 182.077C1153.2 182.015 1153.09 181.877 1153.09 181.539H1143.09ZM1154.14 192.329C1160.28 192.329 1165.13 187.7 1165.13 181.539H1155.13C1155.13 181.879 1155.02 182.024 1154.95 182.091C1154.88 182.159 1154.66 182.329 1154.14 182.329V192.329ZM1165.13 181.539C1165.13 175.656 1160.42 170.683 1154.14 170.683V180.683C1154.55 180.683 1154.77 180.823 1154.89 180.949C1155.03 181.092 1155.13 181.295 1155.13 181.539H1165.13Z" fill="black"/>
<path d="M673.092 217.564H658.81L638.85 255.266L618.89 217.564H604.519V277H618.712V245.153L635.479 277H642.221L658.898 245.33V277H673.092V217.564ZM731.169 232.378H715.91L704.644 258.371L694.088 232.378H678.829L697.281 275.492L690.096 292.081H705.443L731.169 232.378ZM785.366 231.136C779.777 231.136 775.075 233.177 771.704 236.725V232.467H757.51V277H771.704V256.33C771.704 247.725 775.341 243.911 780.93 243.911C785.454 243.911 788.559 247.459 788.559 252.693V277H802.664V249.677C802.664 238.499 795.745 231.136 785.366 231.136ZM859.188 232.467H844.994V236.016C841.534 232.911 836.921 231.136 831.155 231.136C819.356 231.136 809.421 240.717 809.421 254.734C809.421 268.839 819.356 278.331 831.155 278.331C836.921 278.331 841.534 276.556 844.994 273.452V277H859.188V232.467ZM834.082 266.266C827.873 266.266 823.348 261.653 823.348 254.734C823.348 247.903 827.873 243.201 834.082 243.201C839.849 243.201 844.994 247.903 844.994 254.734C844.994 261.653 839.849 266.266 834.082 266.266ZM927.101 231.136C920.181 231.136 914.858 234.064 911.31 238.677C908.294 233.798 902.971 231.136 896.761 231.136C890.995 231.136 886.648 233.177 883.632 236.548V232.467H869.438V277H883.632V255.177C883.632 247.725 887.003 243.911 892.148 243.911C896.407 243.911 899.689 247.104 899.689 252.161V277H913.883V255.177C913.883 247.725 917.342 243.911 922.576 243.911C926.746 243.911 930.028 247.104 930.028 252.161V277H944.133V249.145C944.133 238.322 936.593 231.136 927.101 231.136ZM997.464 254.734C997.197 240.185 987.084 231.136 974.487 231.136C961.536 231.136 950.89 240.717 950.89 254.734C950.89 268.839 961.536 278.331 974.399 278.331C984.6 278.331 992.673 273.806 996.488 264.403L983.891 261.83C981.496 266.177 977.681 266.976 974.399 266.976C969.608 266.976 965.971 263.693 964.818 258.371H997.464V254.734ZM974.487 242.669C978.568 242.669 982.117 244.887 983.447 249.677H965.084C966.415 245.153 970.495 242.669 974.487 242.669ZM1001.83 265.379C1003.34 274.516 1012.3 278.331 1022.76 278.331C1034.47 278.331 1042.99 273.185 1042.99 263.339C1042.99 256.774 1039.09 251.717 1030.66 249.943L1020.19 247.814C1017.35 247.193 1016.82 245.951 1016.82 244.709C1016.82 243.112 1018.06 241.25 1021.88 241.25C1026.22 241.25 1028.88 243.733 1029.33 246.483L1042.28 243.911C1040.51 236.193 1033.14 231.136 1022.05 231.136C1010.79 231.136 1002.89 237.08 1002.89 246.217C1002.89 253.225 1007.59 257.661 1015.84 259.169L1024.89 260.943C1028.17 261.564 1029.33 262.718 1029.33 264.226C1029.33 266.177 1027.29 267.774 1023.56 267.774C1019.75 267.774 1016.29 266.355 1015.67 262.54L1001.83 265.379ZM1071.12 217.564V277H1094.63C1114.23 277 1127.18 264.935 1127.18 247.282C1127.18 229.628 1114.23 217.564 1094.63 217.564H1071.12ZM1085.75 264.314V230.249H1094.09C1105.18 230.249 1112.46 236.991 1112.46 247.282C1112.46 257.572 1105.18 264.314 1094.09 264.314H1085.75ZM1182.24 232.467H1168.04V236.016C1164.58 232.911 1159.97 231.136 1154.2 231.136C1142.41 231.136 1132.47 240.717 1132.47 254.734C1132.47 268.839 1142.41 278.331 1154.2 278.331C1159.97 278.331 1164.58 276.556 1168.04 273.452V277H1182.24V232.467ZM1157.13 266.266C1150.92 266.266 1146.4 261.653 1146.4 254.734C1146.4 247.903 1150.92 243.201 1157.13 243.201C1162.9 243.201 1168.04 247.903 1168.04 254.734C1168.04 261.653 1162.9 266.266 1157.13 266.266ZM1220.34 231.136C1214.75 231.136 1210.05 233.177 1206.68 236.725V232.467H1192.49V277H1206.68V256.33C1206.68 247.725 1210.32 243.911 1215.91 243.911C1220.43 243.911 1223.54 247.459 1223.54 252.693V277H1237.64V249.677C1237.64 238.499 1230.72 231.136 1220.34 231.136ZM1255.13 211.265C1250.34 211.265 1246.97 214.991 1246.97 219.338C1246.97 223.862 1250.34 227.233 1255.13 227.233C1259.92 227.233 1263.38 223.862 1263.38 219.338C1263.38 214.991 1259.92 211.265 1255.13 211.265ZM1262.23 277V232.467H1248.04V277H1262.23ZM1316.87 254.734C1316.61 240.185 1306.5 231.136 1293.9 231.136C1280.95 231.136 1270.3 240.717 1270.3 254.734C1270.3 268.839 1280.95 278.331 1293.81 278.331C1304.01 278.331 1312.08 273.806 1315.9 264.403L1303.3 261.83C1300.91 266.177 1297.09 266.976 1293.81 266.976C1289.02 266.976 1285.38 263.693 1284.23 258.371H1316.87V254.734ZM1293.9 242.669C1297.98 242.669 1301.53 244.887 1302.86 249.677H1284.5C1285.83 245.153 1289.91 242.669 1293.9 242.669ZM1338.45 277V213.128H1324.26V277H1338.45Z" fill="black"/>
<path d="M912 308L916.181 358.358L935 365L953.819 358.358L958 308H912ZM949.507 318.179L948.932 324.197L935.12 330.469L935.084 330.482H948.441L946.907 349.134L935.144 352.786L923.308 349.071L922.542 339.668H928.399L928.783 344.541L935.084 346.233L941.636 344.274L942.08 336.436L922.158 336.373V336.36L922.134 336.373L921.703 330.482L935.132 324.54L935.91 324.197H921.188L920.493 318.179H949.507Z" fill="black"/>
<path d="M1025.96 329.438C1024.98 325.507 1023.12 322.542 1019.16 322.542H1014.06V328.573C1014.06 333.255 1010.09 337.199 1005.56 337.199H991.972C988.257 337.199 985.178 340.38 985.178 344.107V357.059C985.178 360.749 988.385 362.912 991.972 363.968C996.273 365.227 1000.41 365.456 1005.56 363.968C1008.98 362.975 1012.35 360.978 1012.35 357.059V351.881H998.779V350.151H1019.16C1023.12 350.151 1024.58 347.39 1025.96 343.255C1027.38 338.993 1027.32 334.896 1025.96 329.438V329.438ZM1006.41 355.329C1007.83 355.329 1008.97 356.487 1008.97 357.912C1008.97 359.349 1007.83 360.507 1006.41 360.507C1005.01 360.507 1003.86 359.337 1003.86 357.912C1003.87 356.474 1005.01 355.329 1006.41 355.329ZM991.349 335.494H1004.94C1008.72 335.494 1011.73 332.377 1011.73 328.586V315.621C1011.73 311.932 1008.63 309.171 1004.94 308.547C1000.38 307.797 995.433 307.835 991.349 308.56C985.598 309.578 984.555 311.702 984.555 315.634V320.812H998.156V322.542H979.453C975.496 322.542 972.036 324.921 970.954 329.438C969.707 334.616 969.657 337.848 970.954 343.255C971.921 347.275 974.224 350.151 978.181 350.151H982.85V343.942C982.85 339.451 986.731 335.494 991.349 335.494ZM990.497 317.351C989.084 317.351 987.939 316.194 987.939 314.769C987.952 313.331 989.084 312.173 990.497 312.173C991.896 312.173 993.054 313.344 993.054 314.769C993.054 316.194 991.909 317.351 990.497 317.351V317.351Z" fill="black"/>
<path d="M852 308L856.181 358.358L874.94 365L893.819 358.358L898 308H852ZM888.92 324.273H866.902L867.393 330.558H888.429L886.799 349.44L875.072 352.875V352.913H874.94L863.117 349.44L862.398 339.795H868.112L868.531 344.643L874.94 346.488L881.373 344.643L882.092 336.729H862.098L860.565 318.204H889.447L888.92 324.273Z" fill="black"/>
<path d="M1065.49 365C1064.72 365 1063.95 364.796 1063.27 364.412L1056.23 360.283C1055.18 359.695 1055.69 359.492 1056.04 359.379C1057.44 358.892 1057.73 358.79 1059.22 357.942C1059.38 357.852 1059.59 357.886 1059.75 357.987L1065.16 361.166C1065.35 361.279 1065.63 361.279 1065.81 361.166L1086.89 349.109C1087.08 348.995 1087.21 348.769 1087.21 348.543V324.429C1087.21 324.191 1087.08 323.976 1086.88 323.852L1065.81 311.806C1065.61 311.693 1065.35 311.693 1065.16 311.806L1044.1 323.863C1043.89 323.976 1043.77 324.202 1043.77 324.44V348.543C1043.77 348.769 1043.89 348.995 1044.1 349.097L1049.87 352.4C1053.01 353.95 1054.93 352.128 1054.93 350.285V326.487C1054.93 326.148 1055.2 325.888 1055.55 325.888H1058.22C1058.55 325.888 1058.83 326.148 1058.83 326.487V350.296C1058.83 354.436 1056.55 356.811 1052.59 356.811C1051.37 356.811 1050.41 356.811 1047.74 355.499L1042.21 352.343C1040.84 351.563 1040 350.104 1040 348.532V324.429C1040 322.868 1040.84 321.397 1042.21 320.617L1063.27 308.56C1064.61 307.813 1066.38 307.813 1067.7 308.56L1088.79 320.628C1090.16 321.409 1091 322.868 1091 324.44V348.543C1091 350.104 1090.16 351.563 1088.79 352.355L1067.7 364.412C1067.03 364.796 1066.26 365 1065.49 365ZM1082.51 341.236C1082.51 336.723 1079.43 335.524 1072.95 334.676C1066.4 333.817 1065.74 333.375 1065.74 331.86C1065.74 330.604 1066.3 328.93 1071.15 328.93C1075.48 328.93 1077.07 329.858 1077.74 332.753C1077.79 333.025 1078.04 333.228 1078.33 333.228H1081.07C1081.24 333.228 1081.4 333.161 1081.51 333.036C1081.63 332.912 1081.69 332.742 1081.67 332.572C1081.25 327.584 1077.91 325.266 1071.15 325.266C1065.13 325.266 1061.55 327.777 1061.55 331.996C1061.55 336.565 1065.12 337.832 1070.89 338.397C1077.79 339.065 1078.33 340.071 1078.33 341.417C1078.33 343.747 1076.44 344.743 1071.99 344.743C1066.41 344.743 1065.19 343.351 1064.78 340.603C1064.74 340.309 1064.48 340.094 1064.18 340.094H1061.45C1061.11 340.094 1060.84 340.365 1060.84 340.693C1060.84 344.211 1062.77 348.407 1072.01 348.407C1078.67 348.396 1082.51 345.783 1082.51 341.236V341.236Z" fill="black"/>
</g>
</g>
<defs>
<filter id="filter0_d_7_7" x="0" y="0" width="1942" height="736" filterUnits="userSpaceOnUse" color-interpolation-filters="sRGB">
<feFlood flood-opacity="0" result="BackgroundImageFix"/>
<feColorMatrix in="SourceAlpha" type="matrix" values="0 0 0 0 0 0 0 0 0 0 0 0 0 0 0 0 0 0 127 0" result="hardAlpha"/>
<feOffset dy="4"/>
<feGaussianBlur stdDeviation="2"/>
<feComposite in2="hardAlpha" operator="out"/>
<feColorMatrix type="matrix" values="0 0 0 0 0 0 0 0 0 0 0 0 0 0 0 0 0 0 0.25 0"/>
<feBlend mode="normal" in2="BackgroundImageFix" result="effect1_dropShadow_7_7"/>
<feBlend mode="normal" in="SourceGraphic" in2="effect1_dropShadow_7_7" result="shape"/>
</filter>
<clipPath id="clip0_7_7">
<rect width="1934" height="728" fill="white" transform="translate(4)"/>
</clipPath>
<clipPath id="clip1_7_7">
<rect width="1934" height="1289" fill="white" transform="translate(4 -367)"/>
</clipPath>
</defs>
</svg>
